<?xml version="1.0" encoding="UTF-8" standalone="no"?>
<!-- Created with Inkscape (http://www.inkscape.org/) -->
<svg
   xmlns:svg="http://www.w3.org/2000/svg"
   xmlns="http://www.w3.org/2000/svg"
   version="1.0"
   width="602.36218"
   height="490.81888"
   id="svg3863">
  <defs
     id="defs3865" />
  <g
     id="layer1">
    <g
       transform="matrix(3.543307e-5,0,0,3.543307e-5,-35.43201,31.51548)"
       style="fill-rule:evenodd"
       id="Layer_x0020_1">
  
  
  <path
   d="M 13562058,3704632.1 L 13561201,3678837.9 L 13560058,3642060.7 L 13558996,3614837.9 C 13474321,1443307 11687190,-290944 9495556.6,-290944 C 7249260,-290944 5428277.6,1529535.5 5428277.6,3775900.7 L 5428426.2,3781249.3 L 5428426.2,3782312.1 L 5428426.2,3783386.4 L 5428426.2,3784666.4 L 5428426.2,3785740.7 L 5428426.2,3786803.6 L 5428426.2,3787877.8 L 5428426.2,3788940.7 L 5428426.2,3790015 L 5428426.2,3791077.8 L 5428494.7,3793935 L 5428631.9,3797706.4 L 5428631.9,3798780.7 L 5428631.9,3799843.6 L 5428631.9,3800917.8 L 5428631.9,3802197.8 L 5428631.9,3803272.1 L 5428631.9,3804335 L 5428631.9,3805409.3 L 5428631.9,3806552.1 L 5428780.5,3811672.1 L 5428849,3813169.3 L 5428849,3814243.5 L 5428849,3815317.8 L 5428849,3816380.7 L 5428849,3817455 L 5428849,3818517.8 L 5428849,3819797.8 L 5428849,3820015 L 5428997.6,3824083.5 L 5428997.6,3825146.4 L 5428997.6,3826220.7 L 5428997.6,3827283.5 L 5428997.6,3828563.5 L 5429283.3,3844883.5 L 5429283.3,3846175 C 5466974.7,6060185.8 7272711.4,7842894 9496059.4,7842894 C 11742139,7842894 13562904,6021488.7 13562413,3775900.7 L 13562904,3775900.7 C 13562904,3752026.4 13562698,3728300.7 13562058,3704632.1 z M 5771351.8,5247968.9 C 6314403.1,6347237.2 7446311.4,7103511.3 8755682.5,7103511.3 C 10593271,7103511.3 12083076,5613706 12083076,3775900.7 L 11341910,3775900.7 C 11341910,5399191.7 10026059,6714825.7 8402985.4,6714825.7 C 7185408.6,6714825.7 6140871.7,5974665.9 5694746.1,4919786.1 C 6117134.6,5775260.2 6998048.6,6364128.6 8016505.5,6364128.6 C 9446025.2,6364128.6 10604528,5204917.5 10604528,3775900.7 L 9863865.1,3775900.7 C 9863865.1,4990917.5 8878893.9,5975728.7 7664025.6,5975728.7 C 6471900.2,5975728.7 5501260.4,5027397.5 5465409,3843535 C 5464986.2,3820940.7 5464483.3,3798563.6 5464483.3,3775900.7 L 6169443.1,3775900.7 C 6169443.1,1744472.6 7816185.6,97238.757 9848322.2,97238.757 C 11358162,97238.757 12655910,1007444.2 13222756,2308895.4 C 12680573,1206701.3 11546516,447935.81 10235728,447935.81 C 8397431.1,447935.81 6907831.5,1938106.9 6907831.5,3775900.7 L 7649202.8,3775900.7 C 7649202.8,2152758.2 8964848.1,836118.57 10587705,836118.57 C 11807419,836118.57 12853384,1578632.7 13298801,2635718.1 C 12877259,1778324.1 11994996,1188095.6 10974105,1188095.6 C 9545876.6,1188095.6 8386882.6,2346598.2 8386882.6,3775900.7 L 9127259.5,3775900.7 C 9127259.5,2561032.4 10112505,1575787 11327373,1575787 C 12523144,1575787 13495567,2529603.9 13526493,3717535 C 13526778,3736986.4 13527201,3756380.7 13527201,3775900.7 L 12821464,3775900.7 C 12821464,5807545.9 11175008,7454288.4 9143076.7,7454288.4 C 7635168.5,7454288.4 6339271.7,6546642.9 5771351.8,5247968.9 z M 3371478.1,11366207 L 2807558.2,11366207 L 3255603.9,10392002 L 3371478.1,11366207 z M 2372621.2,12292161 L 2538095.5,11933339 L 3425283.8,11933339 L 3468540.9,12292161 L 4356517.9,12292161 L 3861500.8,9571590.7 L 2954438.2,9571590.7 L 1499970,12292161 L 2372621.2,12292161 z M 4571455,12292161 L 5051146.3,9571590.7 L 5943180.3,9571590.7 L 5463694.7,12292161 L 4571455,12292161 z M 7281900,10206425 L 7698025.6,10206425 C 7906185.6,10206425 8041168.4,10296928 8006745.5,10489773 C 7973328.4,10678848 7814117,10746688 7538391.4,10746688 L 7186620,10746688 L 7281900,10206425 z M 7353305.7,11343545 C 7769145.6,11343545 7808837,11460699 7746551.3,11816173 C 7703294.2,12057842 7695739.9,12231796 7707785.6,12292161 L 8610585.4,12292161 L 8625979.7,12209133 C 8519865.4,12209133 8552574,12088264 8615431.1,11733007 C 8711705.4,11185190 8549796.8,11117270 8281259.7,11011442 C 8614139.7,10924425 8800642.5,10659956 8856231,10346745 C 8949522.4,9817522.1 8694105.4,9571590.7 7787248.4,9571590.7 L 6502323,9571590.7 L 6022848.9,12292161 L 6914597.2,12292161 L 7081294.3,11343545 L 7353305.7,11343545 z M 10342334,11154756 C 10625693,11154756 10830299,11170082 10788608,11407899 C 10752402,11612070 10578871,11657327 10358939,11657327 L 9969979.3,11657327 L 10058482,11154756 L 10342334,11154756 z M 10539179,10206425 C 10728242,10206425 10901488,10210482 10864219,10421648 C 10836071,10580288 10693328,10659956 10516585,10659956 L 10145716,10659956 L 10225396,10206425 L 10539179,10206425 z M 10292528,12292161 C 10998768,12292161 11501053,12080424 11608162,11472242 C 11660687,11177853 11546299,10924425 11265510,10848528 C 11457865,10739133 11675796,10535248 11725110,10255739 C 11819887,9715190.7 11357808,9571590.7 10745351,9571590.7 L 9446025.2,9571590.7 L 8966345.3,12292161 L 10292528,12292161 z M 12303076,9571590.7 L 13194539,9571590.7 L 12907476,11200230 C 12860230,11468539 12871990,11699304 13238790,11699304 C 13559350,11699304 13690116,11494905 13742138,11200230 L 14029487,9571590.7 L 14921738,9571590.7 L 14649715,11109499 C 14495852,11982150 14024995,12364070 13121419,12364070 C 12278916,12364070 11866859,12043019 12032333,11105442 L 12303076,9571590.7 z M 16652492,10361076 C 16653989,10266791 16614721,10210482 16556138,10176276 C 16498846,10142356 16421166,10126745 16334938,10126745 C 16137818,10126745 16041246,10183339 16023932,10282105 C 15951806,10690390 17561063,10436756 17386606,11426996 C 17275212,12057842 16695681,12364070 15948035,12364070 C 15229955,12364070 14835292,11944950 14902915,11453430 L 15756972,11453430 C 15758961,11551704 15799155,11623613 15866789,11668653 C 15930149,11714127 16020652,11736996 16107384,11736996 C 16330378,11736996 16490583,11665087 16513669,11536390 C 16585863,11124607 14971258,11407899 15154847,10368836 C 15256401,9790870.6 15806492,9499750.7 16486515,9499750.7 C 17242286,9499750.7 17518800,9885373.5 17498983,10361076 L 16652492,10361076 z "
   style="fill:#081d58;fill-opacity:1"
   id="path3918" />

 </g>
  </g>
</svg>
